<?xml version="1.0" encoding="UTF-8"?>
<svg width="79px" height="85px" viewBox="0 0 79 85" version="1.1" xmlns="http://www.w3.org/2000/svg" xmlns:xlink="http://www.w3.org/1999/xlink">
    <title>responsable</title>
    <g id="Desktop" stroke="none" stroke-width="1" fill="none" fill-rule="evenodd">
        <g id="Home" transform="translate(-1047.000000, -911.000000)">
            <g id="Group-13" transform="translate(963.000000, 912.000000)">
                <g id="responsable" transform="translate(84.000000, 0.000000)">
                    <path d="M39.2248752,83 C38.1634414,82.9990193 37.1165529,82.7569636 36.1656852,82.2926712 C6.82620565,68.0450477 1.36483297,38.0745149 0.707825731,21.502811 C0.634299356,18.7901438 2.20861978,16.2948522 4.7114636,15.1570609 L36.3094055,0.646715323 C37.2197545,0.218933455 38.2161098,-0.00207505225 39.2248752,0 C40.2465914,0 41.255853,0.220776699 42.1814077,0.646715323 L73.7793497,15.1570609 C76.2576399,16.3106085 77.7998282,18.8061617 77.7008616,21.502811 C77.0438544,38.0745149 71.5414188,67.9844195 42.2635336,82.2926712 C41.3162456,82.7467152 40.278437,82.9882928 39.2248752,83 Z" id="Path" stroke="#273B64"></path>
                    <path d="M38.0506963,5.15289694 L6.5451416,19.7456876 L6.5451416,19.7456876 C6.01525223,19.9913031 5.68473514,20.5293793 5.70635735,21.1112141 C6.29964377,36.6211494 11.2709748,64.6857762 38.0302381,77.8315164 C38.4520735,78.0561612 38.9586408,78.0561612 39.3804762,77.8315164 C66.1192813,64.6857762 71.1110705,36.6211494 71.7043569,21.0500711 C71.7259791,20.4682364 71.3954621,19.9301601 70.8655727,19.6845446 L39.360018,5.15289694 C38.9475642,4.94903435 38.4631501,4.94903435 38.0506963,5.15289694 L38.0506963,5.15289694 Z" id="Path" stroke="#273B64"></path>
                    <path d="M54.3515991,23.7470273 C52.7018086,24.6351435 50.9778621,25.3782392 49.1992362,25.9679193 C43.8246146,27.7446328 30.064775,33.8419907 36.0657623,48.1768388 C40.1096308,40.5661523 45.4106013,33.6924356 51.7451096,27.8455825 C46.463737,34.0533384 41.7314069,40.7073218 37.6013685,47.7326605 C36.7249993,49.2313528 35.9552939,50.7898288 35.2979592,52.3965336 C34.813031,51.1043782 34.1058439,49.3478546 33.580505,48.3585482 C31.039714,43.2653583 27.9791999,38.4480501 24.4476893,33.9833202 C28.6649731,38.2112534 32.08699,43.1625529 34.5503615,48.6008273 C34.7322096,48.3787381 34.8938524,48.1162691 35.0554951,47.8739899 C33.3953508,44.5492839 33.1122568,40.7050457 34.2674867,37.1733287 C31.4589438,34.4678785 24.548716,32.3479362 21.8614052,30.4904629 C21.8614052,30.4904629 20.1035402,44.6234117 28.3877314,48.6613971 C29.8230046,49.2741481 31.3736818,49.5702737 32.9339339,49.529564 C33.4188622,49.529564 34.2472813,52.1340645 34.7120043,53.8905882 C34.5099508,54.4559061 34.3078974,55.0817938 34.0856386,55.7682514 C33.8633798,56.4547089 35.2979592,57.3228757 35.2575486,56.8786973 C35.0757005,55.1625536 37.1568509,49.5497539 38.3489663,49.5901337 C40.5899372,49.6238736 42.8234751,49.3244812 44.9763192,48.7017769 C48.4920492,47.6519007 54.1293403,44.1388535 54.876938,32.9738239 C55.0183754,30.9548312 55.1598128,28.9358385 55.3214556,27.0379854 L55.7053571,23 L54.3718044,23.7470273 L54.3515991,23.7470273 Z" id="Path" fill="#009F7F" fill-rule="nonzero"></path>
                </g>
            </g>
        </g>
    </g>
</svg>