<?xml version="1.0" encoding="UTF-8"?>
<svg width="81px" height="85px" viewBox="0 0 81 85" version="1.1" xmlns="http://www.w3.org/2000/svg" xmlns:xlink="http://www.w3.org/1999/xlink">
    <title>souple</title>
    <g id="Desktop" stroke="none" stroke-width="1" fill="none" fill-rule="evenodd">
        <g id="Home" transform="translate(-490.000000, -911.000000)">
            <g id="Group-10" transform="translate(428.000000, 912.000000)">
                <g id="souple" transform="translate(63.000000, 0.000000)">
                    <path d="M61.5837503,78 L11.7951971,78 C5.38553303,78 0.189473684,72.8039407 0.189473684,66.3942766 L0.189473684,16.6057234 C0.189473684,10.1960593 5.38553303,5 11.7951971,5 L61.5837503,5 C67.9934143,5 73.1894737,10.1960593 73.1894737,16.6057234 L73.1894737,66.3942766 C73.1894737,72.8039407 67.9934143,78 61.5837503,78 L61.5837503,78 Z" id="Path" stroke="#273B64"></path>
                    <line x1="0.189473684" y1="25.5" x2="73.1894737" y2="25.5" id="Path" stroke="#273B64"></line>
                    <circle id="Oval" stroke="#273B64" cx="18.1894737" cy="15" r="5"></circle>
                    <circle id="Oval" stroke="#273B64" cx="54.1894737" cy="15" r="5"></circle>
                    <line x1="18.6894737" y1="11" x2="18.6894737" y2="0" id="Path" stroke="#273B64" stroke-linecap="round" stroke-linejoin="round"></line>
                    <line x1="54.6894737" y1="11" x2="54.6894737" y2="0" id="Path" stroke="#273B64" stroke-linecap="round" stroke-linejoin="round"></line>
                    <rect id="Rectangle" stroke="#009F7F" fill="#009F7F" fill-rule="nonzero" stroke-linecap="round" stroke-linejoin="round" x="10.1894737" y="31" width="11" height="10"></rect>
                    <rect id="Rectangle" stroke="#273B64" stroke-linecap="round" stroke-linejoin="round" x="29.1894737" y="31" width="11" height="10"></rect>
                    <rect id="Rectangle" stroke="#273B64" stroke-linecap="round" stroke-linejoin="round" x="50.1894737" y="31" width="11" height="10"></rect>
                    <rect id="Rectangle" stroke="#273B64" stroke-linecap="round" stroke-linejoin="round" x="10.1894737" y="46" width="11" height="10"></rect>
                    <rect id="Rectangle" stroke="#009F7F" fill="#009F7F" fill-rule="nonzero" stroke-linecap="round" stroke-linejoin="round" x="29.1894737" y="46" width="11" height="10"></rect>
                    <rect id="Rectangle" stroke="#273B64" stroke-linecap="round" stroke-linejoin="round" x="50.1894737" y="46" width="11" height="10"></rect>
                    <rect id="Rectangle" stroke="#273B64" stroke-linecap="round" stroke-linejoin="round" x="10.1894737" y="62" width="11" height="10"></rect>
                    <rect id="Rectangle" stroke="#009F7F" fill="#009F7F" fill-rule="nonzero" stroke-linecap="round" stroke-linejoin="round" x="29.1894737" y="62" width="11" height="10"></rect>
                    <circle id="Oval" stroke="#273B64" fill="#FFFFFF" fill-rule="nonzero" stroke-linecap="round" stroke-linejoin="round" cx="63.1894737" cy="67" r="16"></circle>
                    <polyline id="Path" stroke="#009F7F" stroke-linecap="round" stroke-linejoin="round" points="63.1894737 58 63.1894737 66.6197183 73.1894737 70"></polyline>
                </g>
            </g>
        </g>
    </g>
</svg>